#N canvas 945 219 212 299 10;
#X obj 32 107 pow;
#X obj 32 64 t b f;
#X msg 32 83 10;
#X obj 54 170 /;
#X obj 32 127 t b f;
#X msg 32 148 1;
#X obj 32 41 * -0.05;
#X obj 32 19 inlet;
#X obj 54 193 outlet;
#X connect 0 0 4 0;
#X connect 1 0 2 0;
#X connect 1 1 0 1;
#X connect 2 0 0 0;
#X connect 3 0 8 0;
#X connect 4 0 5 0;
#X connect 4 1 3 1;
#X connect 5 0 3 0;
#X connect 6 0 1 0;
#X connect 7 0 6 0;
